# xmcd
# 
# Track frame offsets:
#     150
#     18857
#     36655
#     55765
#     72797
#     90820
#     109470
#     123885
#     137402
#     154965
#     173560
#     191017
#     206692
#     221465
#     237825
#     252382
# 
# Disc length: 3576
# 
# Revision: 4
# Processed by: cddbd v1.5.2PL0 Copyright (c) Steve Scherf et al.
# Submitted via: fre:ac v1.0.27
# 
DISCID=d90df610
DTITLE=BZN - BZN Good For Gold
DYEAR=1995
DGENRE=Pop
TTITLE0=Mon Amour
TTITLE1=Don't Say Goodbye
TTITLE2=L'important C'est La Rose
TTITLE3=My Illusion
TTITLE4=Memories
TTITLE5=Joan Of Arc
TTITLE6=In My Heart
TTITLE7=Sevilla
TTITLE8=Dreamin'
TTITLE9=A Bar-room In The Night
TTITLE10=Only To you
TTITLE11=Montmartre
TTITLE12=Reggae Reggae
TTITLE13=Mr. Morning
TTITLE14=Dark Of The Night
TTITLE15=L'adieu
EXTD=YEAR: 1995
EXTT0=
EXTT1=
EXTT2=
EXTT3=
EXTT4=
EXTT5=
EXTT6=
EXTT7=
EXTT8=
EXTT9=
EXTT10=
EXTT11=
EXTT12=
EXTT13=
EXTT14=
EXTT15=
PLAYORDER=
